<?xml version="1.0"?>
<svg width="500" height="500" xmlns="http://www.w3.org/2000/svg" xmlns:svg="http://www.w3.org/2000/svg" preserveAspectRatio="xMidYMid meet" version="1.0">
 <g class="layer">
  <title>Layer 1</title>
  <g fill="#000000" id="svg_1" transform="matrix(0.1 0 0 -0.1 0 0)">
   <path d="m47,-1267c14,-48 37,-112 51,-143c30,-61 128,-165 182,-193c34,-17 34,-17 10,0c-57,41 -112,99 -139,147c-30,52 -65,156 -53,156c3,0 22,-15 42,-34c202,-193 639,-426 903,-482c82,-17 120,-17 57,0c-311,87 -742,335 -1007,580c-34,31 -63,56 -66,56c-2,0 7,-39 20,-87z" fill="red" id="svg_2" stroke="black" stroke-width="5"/>
   <path d="m4954,-1211c-91,-97 -375,-301 -559,-402c-163,-90 -448,-207 -502,-207c-9,0 -13,-3 -10,-6c22,-22 275,56 444,136c204,97 480,276 562,364c36,38 42,32 25,-26c-28,-97 -94,-186 -184,-251c-24,-17 -24,-17 9,0c63,33 137,110 174,180c35,67 91,243 78,243c-4,0 -20,-14 -37,-31z" fill="red" id="svg_3" stroke="black" stroke-width="5"/>
   <path d="m94,-1575c22,-61 126,-225 178,-280c58,-63 176,-136 217,-135c9,1 -9,13 -39,27c-64,31 -141,104 -195,186c-42,63 -41,80 2,49c83,-58 263,-133 423,-175c112,-29 123,-30 440,-37c354,-8 390,-13 506,-71c34,-17 84,-50 112,-75c35,-31 53,-41 58,-32c11,18 -80,93 -161,134c-116,57 -173,65 -535,73c-306,8 -331,10 -422,34c-230,63 -407,153 -542,277c-32,29 -47,38 -42,25z" fill="red" id="svg_4" stroke="black" stroke-width="5"/>
   <path d="m4894,-1591c-109,-114 -317,-221 -554,-286c-89,-24 -115,-26 -420,-34c-362,-8 -419,-16 -535,-73c-81,-41 -172,-116 -161,-134c5,-9 23,2 59,33c29,25 79,59 112,75c116,57 153,62 505,70c303,7 332,9 427,34c156,39 354,120 436,178c43,31 44,14 2,-49c-54,-82 -136,-160 -197,-188c-29,-14 -46,-25 -37,-25c9,0 48,16 87,35c95,48 178,139 256,279c32,59 57,109 54,111c-2,3 -18,-9 -34,-26z" fill="red" id="svg_5" stroke="black" stroke-width="5"/>
   <path d="m2095,-1701c-54,-27 -112,-85 -141,-141c-29,-58 -30,-79 -4,-103c21,-19 22,-17 140,100l120,119l-22,23c-26,28 -41,28 -93,2z" id="svg_6"/>
   <path d="m2825,-1700c-19,-21 -17,-22 100,-140c66,-66 124,-119 130,-117c5,2 17,15 25,30c13,24 13,30 -7,70c-30,63 -78,114 -137,148c-60,34 -86,36 -111,9z" id="svg_7"/>
   <path d="m2116,-1871c-119,-119 -119,-120 -100,-139c19,-20 20,-19 139,100c119,119 119,120 100,140c-20,19 -21,19 -139,-101z" id="svg_8"/>
   <path d="m2758,-1769c-16,-16 -10,-24 105,-138c116,-115 123,-120 139,-104c17,17 12,23 -90,127c-135,138 -133,136 -154,115z" id="svg_9"/>
   <path d="m2178,-1938l-117,-118l57,-57c32,-31 62,-57 67,-57c17,0 225,214 225,231c0,13 -98,119 -110,119c-3,0 -58,-53 -122,-118z" id="svg_10"/>
   <path d="m2651,-1875c-42,-44 -50,-58 -42,-72c5,-10 57,-65 114,-122c118,-117 110,-115 187,-37l44,46l-119,120c-66,66 -122,120 -126,120c-3,0 -29,-25 -58,-55z" id="svg_11"/>
   <path d="m518,-1997c7,-3 16,-2 19,1c4,3 -2,6 -13,5c-11,0 -14,-3 -6,-6z" id="svg_12"/>
   <path d="m502,-2096c162,-200 340,-254 588,-179c50,16 124,29 180,32c82,6 90,8 55,15c-53,10 -128,1 -255,-29c-147,-35 -260,-31 -351,14c-63,31 -179,125 -169,137c3,3 48,-4 100,-15c141,-29 298,-34 486,-15c184,18 366,21 445,6c168,-31 296,-160 307,-309c6,-86 -12,-125 -71,-152c-23,-10 -55,-19 -70,-19c-29,0 -90,22 -117,43c-9,7 -4,0 12,-15c73,-72 195,-56 261,34c33,44 28,131 -11,210c-106,215 -281,274 -687,233c-350,-35 -516,-19 -739,71c-12,5 2,-20 36,-62z" fill="red" id="svg_13" stroke="black" stroke-width="5"/>
   <path d="m4483,-2062c-154,-60 -365,-74 -662,-44c-244,25 -359,19 -477,-25c-151,-57 -274,-245 -244,-374c17,-75 114,-136 193,-121c42,8 94,42 116,76c13,20 10,19 -14,-6c-37,-39 -94,-58 -143,-49c-89,17 -122,58 -122,153c0,146 138,290 309,322c79,15 261,12 445,-6c190,-19 357,-14 490,16c49,11 92,17 95,14c11,-12 -104,-105 -168,-137c-91,-45 -204,-49 -351,-14c-127,30 -202,39 -255,29c-35,-7 -27,-9 55,-14c58,-4 128,-16 180,-32c250,-77 424,-22 594,187c21,26 37,49 35,51c-2,1 -36,-10 -76,-26z" fill="red" id="svg_14" stroke="black" stroke-width="5"/>
   <path d="m2335,-2090l-29,-30l54,-55l54,-55l33,32l33,32l-52,53c-29,29 -55,53 -58,53c-4,0 -19,-14 -35,-30z" id="svg_15"/>
   <path d="m2490,-2215l-155,-155l-53,0c-106,0 -162,-51 -162,-148c0,-45 4,-57 33,-88c51,-56 126,-63 194,-19c33,22 53,73 53,137l0,53l157,157l157,157l-29,31c-16,16 -31,30 -34,30c-4,0 -76,-70 -161,-155zm-175,-240c41,-40 33,-105 -16,-130c-39,-21 -64,-19 -93,8c-40,34 -43,77 -11,115c34,41 84,44 120,7z" id="svg_16"/>
   <path d="m2568,-2327l-27,-27l39,-43c37,-39 40,-47 40,-98c0,-100 51,-157 140,-157c89,0 146,64 137,155c-3,39 -11,56 -40,85c-33,32 -43,36 -105,41c-59,5 -75,11 -107,39c-21,17 -41,32 -44,32c-4,0 -19,-12 -33,-27zm250,-125c31,-34 35,-68 13,-105c-23,-37 -75,-52 -111,-33c-30,16 -52,72 -41,104c22,55 100,75 139,34z" id="svg_17"/>
   <path d="m110,-2892c-42,-28 -60,-61 -60,-109c0,-64 53,-109 162,-139c57,-15 76,-33 58,-55c-24,-29 -103,-12 -115,24c-5,18 -15,21 -61,21l-54,0l0,-75l0,-75l49,0c41,0 51,4 56,20c7,24 18,25 34,6c7,-8 34,-19 60,-26c113,-27 212,47 194,144c-7,36 -61,81 -125,101c-87,29 -110,43 -106,68c5,33 68,36 97,6c12,-13 21,-29 21,-36c0,-11 13,-13 53,-11l52,3l3,73l3,72l-56,0c-49,0 -55,-2 -55,-20c0,-20 0,-20 -30,2c-20,15 -49,23 -87,26c-49,3 -64,0 -93,-20z" id="svg_18"/>
   <path d="m4223,-2890c-82,-50 -82,-159 -1,-208c18,-11 63,-29 101,-42c50,-16 67,-26 67,-40c0,-40 -71,-41 -112,0c-25,25 -37,30 -79,30l-49,0l0,-75l0,-75l51,0c42,0 52,3 56,20c6,24 4,24 45,1c47,-27 90,-34 137,-21c84,22 129,93 101,160c-15,37 -43,55 -144,94c-71,28 -81,35 -81,56c0,21 6,26 32,28c41,4 71,-12 79,-43c6,-23 11,-25 60,-25l54,0l0,75l0,75l-49,0c-40,0 -51,-4 -56,-19c-6,-19 -7,-19 -42,5c-46,31 -123,33 -170,4z" id="svg_19"/>
   <path d="m4653,-2890c-82,-50 -82,-159 -1,-208c18,-11 63,-29 101,-42c50,-16 67,-26 67,-40c0,-40 -71,-41 -112,0c-25,25 -37,30 -79,30l-49,0l0,-75l0,-75l51,0c42,0 52,3 56,20c6,24 4,24 45,1c47,-27 90,-34 137,-21c84,22 129,93 101,160c-15,37 -43,55 -144,94c-71,28 -81,35 -81,56c0,21 6,26 32,28c41,4 71,-12 79,-43c6,-23 11,-25 60,-25l54,0l0,75l0,75l-49,0c-40,0 -51,-4 -56,-19c-6,-19 -7,-19 -42,5c-46,31 -123,33 -170,4z" id="svg_20"/>
   <path d="m470,-2915c0,-28 4,-35 20,-35c19,0 20,-7 20,-135c0,-128 -1,-135 -20,-135c-17,0 -20,-7 -20,-40l0,-40l180,0l180,0l0,65l0,65l-50,0c-47,0 -50,-2 -50,-25c0,-23 -3,-25 -50,-25l-50,0l0,50l0,50l60,0l60,0l0,40l0,40l-61,0l-60,0l3,43l3,42l48,3c46,3 47,3 47,-27c0,-30 1,-31 50,-31l50,0l0,65l0,65l-180,0l-180,0l0,-35z" id="svg_21"/>
   <path d="m870,-2915c0,-24 5,-35 15,-35c13,0 15,-22 15,-135c0,-113 -2,-135 -15,-135c-11,0 -15,-11 -15,-40l0,-40l95,0l95,0l0,40c0,34 -3,40 -21,40c-18,0 -20,5 -17,47c2,25 8,48 15,50c22,7 53,-35 53,-72c0,-73 35,-105 114,-105c52,0 75,22 83,79c5,36 3,41 -15,41c-12,0 -22,-8 -25,-21c-8,-30 -27,-14 -27,23c0,22 -10,40 -34,62l-33,32l27,12c67,30 61,139 -10,174c-28,14 -61,18 -167,18l-133,0l0,-35zm218,-51c44,-31 18,-94 -39,-94c-29,0 -29,1 -29,55c0,51 2,55 23,55c12,0 33,-7 45,-16z" id="svg_22"/>
   <path d="m1290,-2915c0,-27 4,-35 18,-35c13,0 38,-44 98,-172l80,-173l55,-3l54,-3l74,176c45,106 79,175 87,175c9,0 14,12 14,35l0,35l-85,0l-85,0l0,-35c0,-24 5,-35 15,-35c21,0 19,-8 -14,-86c-16,-38 -33,-82 -38,-98c-8,-26 -11,-23 -40,60c-17,49 -34,97 -38,107c-5,12 -2,17 9,17c12,0 16,10 16,35l0,35l-110,0l-110,0l0,-35z" id="svg_23"/>
   <path d="m1780,-2915c0,-28 4,-35 20,-35c19,0 20,-7 20,-135c0,-128 -1,-135 -20,-135c-17,0 -20,-7 -20,-40l0,-40l100,0l100,0l0,40c0,33 -3,40 -20,40c-19,0 -20,7 -20,131c0,122 1,131 20,136c15,4 20,14 20,39l0,34l-100,0l-100,0l0,-35z" id="svg_24"/>
   <path d="m2020,-2914c0,-25 5,-35 20,-39c19,-5 20,-14 20,-136c0,-124 -1,-131 -20,-131c-17,0 -20,-7 -20,-40l0,-40l180,0l180,0l0,65c0,36 -4,65 -10,66c-72,6 -85,2 -88,-24c-3,-25 -7,-27 -53,-27l-49,0l0,50l0,50l55,0l55,0l0,40l0,40l-55,0l-55,0l0,46l0,45l48,-3c43,-3 47,-5 50,-30c3,-26 6,-28 53,-28l49,0l0,65l0,65l-180,0l-180,0l0,-34z" id="svg_25"/>
   <path d="m2410,-2915c0,-24 5,-35 15,-35c13,0 125,-139 125,-155c0,-3 -19,-30 -41,-60c-33,-44 -47,-55 -70,-55c-27,0 -29,-3 -29,-40l0,-40l100,0l100,0l0,39c0,35 -3,40 -25,43l-26,3l30,35l31,35l29,-35c22,-26 26,-36 15,-38c-9,-2 -14,-17 -14,-43l0,-39l115,0l115,0l0,40c0,31 -4,40 -17,40c-10,0 -28,15 -40,33c-11,17 -35,51 -52,73l-31,41l47,62c34,43 54,61 70,61c20,0 23,5 23,35l0,35l-95,0l-95,0l0,-35c0,-31 3,-35 26,-35l25,0l-28,-40c-15,-22 -31,-40 -35,-40c-8,0 -58,63 -58,73c0,4 7,7 15,7c10,0 15,11 15,35l0,35l-120,0l-120,0l0,-35z" id="svg_26"/>
   <path d="m2920,-2915c0,-24 5,-35 15,-35c13,0 15,-22 15,-135c0,-113 -2,-135 -15,-135c-11,0 -15,-11 -15,-40l0,-40l95,0l95,0l0,40c0,34 -3,40 -21,40c-18,0 -20,5 -17,48l3,47l60,5c68,6 94,18 124,56c45,57 14,154 -56,173c-21,6 -93,11 -160,11l-123,0l0,-35zm232,-58c12,-18 10,-61 -4,-75c-7,-7 -27,-12 -45,-12c-33,0 -33,0 -33,48c0,27 3,52 7,56c11,11 65,-2 75,-17z" id="svg_27"/>
   <path d="m3310,-2915c0,-24 5,-35 15,-35c13,0 15,-22 15,-135c0,-113 -2,-135 -15,-135c-11,0 -15,-11 -15,-40l0,-40l95,0l95,0l0,40c0,34 -3,40 -21,40c-18,0 -20,5 -17,47c2,25 8,48 15,50c22,7 53,-35 53,-72c0,-73 35,-105 114,-105c52,0 75,22 83,79c5,36 3,41 -15,41c-12,0 -22,-8 -25,-21c-8,-30 -27,-14 -27,23c0,22 -10,40 -33,62l-34,31l31,16c68,34 52,150 -24,176c-19,7 -92,12 -162,12l-128,1l0,-35zm218,-51c44,-31 18,-94 -39,-94c-29,0 -29,1 -29,55c0,51 2,55 23,55c12,0 33,-7 45,-16z" id="svg_28"/>
   <path d="m3750,-2915c0,-28 4,-35 20,-35c19,0 20,-7 20,-135c0,-127 -1,-135 -19,-135c-16,0 -20,-7 -19,-40l0,-40l184,0l184,0l0,65l0,65l-50,0c-47,0 -50,-2 -50,-25c0,-24 -3,-25 -55,-25l-55,0l0,50l0,50l60,0l60,0l0,40l0,40l-61,0l-60,0l3,43l3,42l50,0c47,0 50,-2 53,-27c3,-26 6,-28 53,-28l49,0l0,65l0,65l-185,0l-185,0l0,-35z" id="svg_29"/>
   <path d="m1420,-3740l0,-140l75,0c41,0 75,4 75,9c0,5 3,16 6,25c5,13 -3,16 -50,16l-56,0l0,40l0,40l40,0c33,0 40,3 40,20c0,17 -7,20 -40,20c-38,0 -40,2 -40,30c0,29 1,30 50,30c47,0 50,2 50,25c0,24 -2,25 -75,25l-75,0l0,-140z" id="svg_30"/>
   <path d="m1655,-3666c41,-73 42,-65 -15,-161l-30,-53l30,0c26,0 33,6 52,45c12,25 25,45 28,45c3,0 16,-20 30,-45c20,-37 30,-45 52,-45l28,0l-37,75l-37,75l18,32c10,18 28,48 38,66l20,32l-29,0c-25,0 -32,-7 -52,-47l-23,-48l-24,48c-21,41 -29,47 -55,47l-31,0l37,-66z" id="svg_31"/>
   <path d="m1922,-3620c-78,-48 -82,-179 -7,-238c20,-16 42,-22 77,-22c62,0 88,13 88,46c0,21 -3,23 -19,14c-11,-5 -38,-10 -60,-10c-66,0 -98,53 -79,128c11,41 39,55 100,50c48,-5 49,-5 46,21c-3,24 -7,26 -58,29c-41,2 -63,-3 -88,-18z" id="svg_32"/>
   <path d="m2140,-3740l0,-140l75,0c73,0 75,1 75,25c0,23 -3,25 -50,25l-50,0l0,40c0,39 1,40 35,40c28,0 35,4 35,20c0,16 -7,20 -35,20c-32,0 -35,2 -35,30c0,29 2,30 44,30c39,0 44,3 48,25c5,25 5,25 -68,25l-74,0l0,-140z" id="svg_33"/>
   <path d="m2350,-3740l0,-140l65,0c63,0 65,1 65,25c0,23 -4,25 -40,25l-40,0l0,115l0,115l-25,0l-25,0l0,-140z" id="svg_34"/>
   <path d="m2530,-3740l0,-140l75,0c41,0 75,4 75,9c0,5 3,16 6,25c5,13 -3,16 -50,16l-56,0l0,40l0,40l40,0c33,0 40,3 40,20c0,17 -7,20 -40,20c-38,0 -40,2 -40,30c0,29 1,30 50,30c47,0 50,2 50,25c0,24 -2,25 -75,25l-75,0l0,-140z" id="svg_35"/>
   <path d="m2750,-3740l0,-140l25,0c23,0 24,2 27,82l3,82l54,-82c35,-54 60,-82 72,-82c18,0 19,10 19,140l0,140l-25,0c-24,0 -24,-2 -27,-87l-3,-87l-54,87c-36,59 -60,87 -72,87c-18,0 -19,-10 -19,-140z" id="svg_36"/>
   <path d="m3074,-3616c-42,-21 -64,-62 -64,-124c0,-91 45,-140 130,-140c54,0 80,15 80,46c0,21 -3,23 -19,14c-11,-5 -38,-10 -60,-10c-50,0 -81,34 -81,90c0,23 8,48 21,64c17,21 29,26 68,26c26,0 52,-5 59,-12c9,-9 12,-5 12,19c0,19 -6,33 -16,37c-28,11 -98,6 -130,-10z" id="svg_37"/>
   <path d="m3290,-3740l0,-140l25,0l25,0l0,140l0,140l-25,0l-25,0l0,-140z" id="svg_38"/>
   <path d="m3437,-3733c-26,-73 -47,-136 -47,-140c0,-4 11,-7 24,-7c18,0 27,8 35,30c9,28 13,30 60,30c46,0 50,-2 60,-30c7,-23 16,-30 35,-30c15,0 26,3 26,8c0,4 -21,67 -47,139c-44,123 -50,133 -73,133c-23,0 -29,-10 -73,-133zm82,31c25,-66 24,-68 -8,-68c-35,0 -35,-1 -19,51c13,45 16,47 27,17z" id="svg_39"/>
   <path d="m580,-3750l0,-70l300,0l300,0l0,70l0,70l-300,0l-300,0l0,-70z" fill="red" id="svg_40" stroke="black" stroke-width="5"/>
   <path d="m3840,-3750l0,-70l300,0l300,0l0,70l0,70l-300,0l-300,0l0,-70z" fill="red" id="svg_41" stroke="black" stroke-width="5"/>
  </g>
 </g>
</svg>